<?xml version="1.0" encoding="iso-8859-1"?>
<!-- Generator: Adobe Illustrator 19.0.0, SVG Export Plug-In . SVG Version: 6.00 Build 0)  -->
<svg version="1.1" id="Layer_1" xmlns="http://www.w3.org/2000/svg" xmlns:xlink="http://www.w3.org/1999/xlink" x="0px" y="0px"
	 viewBox="0 0 502.003 502.003" style="enable-background:new 0 0 502.003 502.003;" xml:space="preserve">
<g>
	<g>
		<g>
			<path d="M284.265,202.694c-5.523,0-10,4.477-10,10v16.114c0,5.523,4.477,10,10,10s10-4.477,10-10v-16.114
				C294.265,207.171,289.788,202.694,284.265,202.694z"/>
			<path d="M284.265,69.305c-78.817,0-142.94,64.123-142.94,142.941v146.817c0,78.817,64.123,142.94,142.941,142.94
				c78.817,0,142.94-64.123,142.94-142.94V212.246C427.206,133.428,363.083,69.305,284.265,69.305z M407.207,359.063h-0.001
				c0,67.79-55.151,122.94-122.94,122.94c-67.79,0-122.94-55.151-122.94-122.94V212.246c0-64.423,49.81-117.426,112.94-122.532
				v88.962c0,5.523,4.477,10,10,10s10-4.477,10-10V89.714c63.13,5.106,112.941,58.109,112.941,122.532V359.063z"/>
			<path d="M120.168,130.124l-31.542-13.065c-5.1-2.114-10.951,0.309-13.065,5.412c-2.113,5.102,0.309,10.952,5.412,13.065
				l31.542,13.065c1.252,0.519,2.548,0.764,3.823,0.764c3.923,0,7.647-2.324,9.242-6.176
				C127.694,138.087,125.271,132.237,120.168,130.124z"/>
			<path d="M103.082,41.776c1.952,1.953,4.512,2.929,7.071,2.929c2.559,0,5.119-0.976,7.072-2.929
				c3.905-3.906,3.905-10.238,0-14.143l-8.353-8.353c-3.906-3.905-10.238-3.905-14.143,0c-3.905,3.906-3.905,10.238,0,14.143
				L103.082,41.776z"/>
			<path d="M148.994,87.688c1.952,1.953,4.512,2.929,7.071,2.929s5.119-0.976,7.072-2.929c3.905-3.906,3.905-10.238,0-14.143
				L140.32,50.728c-3.906-3.905-10.238-3.905-14.143,0c-3.905,3.906-3.905,10.238,0,14.143L148.994,87.688z"/>
			<path d="M206.007,45.372c1.596,3.851,5.319,6.176,9.243,6.176c1.275,0,2.572-0.246,3.823-0.764
				c5.102-2.113,7.526-7.963,5.412-13.065L211.42,6.177c-2.113-5.102-7.963-7.528-13.065-5.412
				c-5.102,2.113-7.525,7.963-5.412,13.065L206.007,45.372z"/>
		</g>
	</g>
</g>
<g>
</g>
<g>
</g>
<g>
</g>
<g>
</g>
<g>
</g>
<g>
</g>
<g>
</g>
<g>
</g>
<g>
</g>
<g>
</g>
<g>
</g>
<g>
</g>
<g>
</g>
<g>
</g>
<g>
</g>
</svg>
